HIERARCHY
ROOT Hips
{
  OFFSET 13.6774 106.653 -34.4427
  CHANNELS 6 Xposition Yposition Zposition Zrotation Xrotation Yrotation
  JOINT ToSpine
  {
    OFFSET -2.69724 7.43032 -0.144315
    CHANNELS 3 Zrotation Xrotation Yrotation
    JOINT Spine
    {
      OFFSET -0.0310711 10.7595 1.96963
      CHANNELS 3 Zrotation Xrotation Yrotation
      JOINT Spine1
      {
        OFFSET 19.9056 3.91189 0.764692
        CHANNELS 3 Zrotation Xrotation Yrotation
        JOINT Neck
        {
          OFFSET 25.9749 7.03908 -0.130764
          CHANNELS 3 Zrotation Xrotation Yrotation
          JOINT Head
          {
            OFFSET 9.52751 0.295786 -0.907742
            CHANNELS 3 Zrotation Xrotation Yrotation
            End Site
            {
              OFFSET 16.4037 0.713936 2.7358
            }
          }
        }
        JOINT LeftShoulder
        {
          OFFSET 17.7449 4.33886 11.7777
          CHANNELS 3 Zrotation Xrotation Yrotation
          JOINT LeftArm
          {
            OFFSET 0.911315 1.27913 9.80584
            CHANNELS 3 Zrotation Xrotation Yrotation
            JOINT LeftForeArm
            {
              OFFSET 28.6126 1.18197 -3.53199
              CHANNELS 3 Zrotation Xrotation Yrotation
              JOINT LeftHand
              {
                OFFSET 27.5088 0.0218783 0.327423
                CHANNELS 3 Zrotation Xrotation Yrotation
                End Site
                {
                  OFFSET 18.6038 -0.000155887 0.382096
                }
              }
            }
          }
        }
        JOINT RightShoulder
        {
          OFFSET 17.1009 2.89543 -12.2328
          CHANNELS 3 Zrotation Xrotation Yrotation
          JOINT RightArm
          {
            OFFSET 1.4228 0.178766 -10.211
            CHANNELS 3 Zrotation Xrotation Yrotation
            JOINT RightForeArm
            {
              OFFSET 28.733 1.87905 2.64907
              CHANNELS 3 Zrotation Xrotation Yrotation
              JOINT RightHand
              {
                OFFSET 27.4588 0.290562 -0.101845
                CHANNELS 3 Zrotation Xrotation Yrotation
                End Site
                {
                  OFFSET 17.8396 -0.255518 -0.000602873
                }
              }
            }
          }
        }
      }
    }
  }
  JOINT LeftUpLeg
  {
    OFFSET -5.61296 -2.22332 -10.2353
    CHANNELS 3 Zrotation Xrotation Yrotation
    JOINT LeftLeg
    {
      OFFSET 2.56703 -44.7417 -7.93097
      CHANNELS 3 Zrotation Xrotation Yrotation
      JOINT LeftFoot
      {
        OFFSET 3.16933 -46.5642 -3.96578
        CHANNELS 3 Zrotation Xrotation Yrotation
        JOINT LeftToeBase
        {
          OFFSET 0.346054 -6.02161 12.8035
          CHANNELS 3 Zrotation Xrotation Yrotation
          End Site
          {
            OFFSET 0.134235 -1.35082 5.13018
          }
        }
      }
    }
  }
  JOINT RightUpLeg
  {
    OFFSET -5.7928 -1.72406 10.6446
    CHANNELS 3 Zrotation Xrotation Yrotation
    JOINT RightLeg
    {
      OFFSET -2.57161 -44.7178 -7.85259
      CHANNELS 3 Zrotation Xrotation Yrotation
      JOINT RightFoot
      {
        OFFSET -3.10148 -46.5936 -4.03391
        CHANNELS 3 Zrotation Xrotation Yrotation
        JOINT RightToeBase
        {
          OFFSET -0.0828122 -6.13587 12.8035
          CHANNELS 3 Zrotation Xrotation Yrotation
          End Site
          {
            OFFSET -0.131328 -1.35082 5.13018
          }
        }
      }
    }
  }
}
MOTION
Frames: 19
Frame Time: 0.03333333333333333
0.0000 93.1000 0.0000 77.9415 1.4738 28.8925 -71.0972 -0.1185 88.0455 110.5413 66.7208 -36.5688 -8.3652 14.8055 10.9618 -114.7828 23.6870 145.2847 179.9357 74.1800 -143.1665 2.1869 -9.0184 -13.1460 -58.1394 36.5575 -139.0828 23.2967 -5.8820 -101.7163 -0.1080 -1.2047 1.0674 -0.8883 6.0170 30.2395 -97.1596 -5.2575 44.6403 7.2619 1.2625 100.2312 0.8155 -1.5429 0.9096 -51.3455 32.0326 114.1198 -1.2249 41.9423 12.3031 -0.5826 -11.0593 0.1126 1.4887 -5.4981 0.6439 -33.8576 -3.1881 66.3893 36.6709 81.4671 -15.7811 2.2790 6.1384 -2.9965 2.1562 -21.0700 -36.2905 
0.0000 93.1000 0.0000 79.7017 0.6332 24.4468 -71.1348 0.0685 88.0849 104.2887 67.4373 -30.5465 -5.6543 15.0408 8.8592 -112.6293 24.2184 147.1332 179.2005 73.9224 -141.8198 1.2295 -10.0869 -12.5712 -57.0955 34.2216 -142.3432 21.6405 -5.3840 -101.5509 0.2459 -0.3455 0.3208 -0.7312 5.9524 28.2960 -102.4896 -0.9433 48.2305 9.3506 1.3679 101.5405 0.2034 -0.5537 0.0765 -50.7670 27.2807 109.2088 -3.0499 50.1513 9.0285 -0.8580 -2.8017 -0.0710 2.7751 -7.0775 0.9573 -42.2860 -1.7770 60.5008 10.8942 67.3086 18.4593 8.0921 10.6686 -4.0179 3.0494 -11.9924 -30.0814 
0.0000 93.1000 0.0000 79.7725 -0.5699 19.3058 -71.1535 0.0900 88.1335 96.7485 68.0357 -23.2655 -3.3804 15.6334 7.3710 -113.0366 26.0352 145.0710 175.8322 74.7457 -138.5563 1.0080 -10.8536 -11.6352 -56.9138 32.3881 -145.5900 21.2439 -4.8594 -101.3526 0.1617 -0.2999 0.0707 -1.0534 4.8661 29.3709 -110.5138 2.2712 53.7048 12.0936 2.3006 102.6258 0.4165 -0.4475 -0.1355 -47.5181 22.5096 102.8528 -5.2337 59.9429 1.3946 -0.7169 1.6202 0.2999 0.9705 -3.6636 1.6568 -47.6075 0.0219 57.5249 6.3160 51.7420 23.1365 12.1566 14.8171 -4.9112 2.0975 -7.2096 -21.5032 
0.0000 93.1000 0.0000 80.0968 -2.9140 12.1376 -71.1250 0.1266 88.0874 92.8595 68.7139 -21.1751 -3.3933 16.5503 6.0370 -114.3847 29.3544 146.4568 170.6690 75.6789 -133.9722 0.7983 -11.2497 -12.1395 -57.5419 31.5366 -148.4087 20.1553 -5.2701 -101.0307 0.1405 -0.0676 0.4125 -1.4097 4.1547 31.8602 -119.0467 4.5517 61.5332 14.1200 3.3610 103.7245 0.2868 -0.2281 0.0051 -46.0188 19.6318 98.5730 -6.7517 65.0424 -2.4618 -1.7565 0.5904 0.1309 0.1462 -2.8621 3.4444 -51.9306 1.6421 61.1968 4.3816 40.3594 21.1733 13.8274 13.5945 -4.8428 3.0766 -6.1172 -23.0016 
0.0000 93.1000 0.0000 80.1528 -6.9103 6.1979 -71.0931 0.1316 88.0490 91.6610 69.1908 -19.2830 -3.4545 17.3726 4.0431 -119.8533 33.1540 151.1909 159.9720 76.5873 -127.6470 0.8545 -12.1970 -12.9153 -59.4086 30.4062 -149.4228 19.4886 -4.3391 -99.7505 0.1926 -0.1145 0.7817 -1.7699 4.5309 34.8139 -125.7999 4.1603 70.8746 14.8653 4.2155 104.6855 0.6932 -0.2708 0.1197 -46.0875 18.8974 97.6687 -6.8537 65.2018 -0.5720 -1.9665 -1.3988 -0.0254 1.3082 -6.4350 4.9524 -53.8926 2.0922 69.2034 2.4612 35.9239 9.3335 7.2038 8.4901 -3.2965 1.6788 -9.7020 -14.3025 
0.0000 93.1000 0.0000 79.7178 -11.5263 2.2271 -71.0718 0.1720 88.0028 91.6404 69.2905 -17.1286 -3.4128 17.7779 4.0269 -127.4471 36.7362 156.6309 151.3105 77.5783 -126.8390 0.5949 -12.8295 -15.2744 -63.5309 29.3760 -149.2603 21.0715 -3.9486 -98.6990 0.1155 -0.0390 0.7158 -2.0242 5.4087 37.8495 -130.9785 1.9353 80.0468 14.8425 4.1120 104.6662 0.8317 -0.1080 -0.0195 -47.2441 20.4866 97.5170 -4.6740 62.1931 2.8029 -1.7177 -0.3385 -0.1523 0.9512 -6.4225 6.8164 -52.7330 1.9722 77.9799 0.1957 36.8741 2.2812 0.1448 0.3386 -1.3769 1.2664 -9.9247 -7.2447 
0.0000 93.1000 0.0000 77.7270 -15.7478 -1.2818 -71.0569 0.1933 87.9659 90.3871 69.7418 -14.7544 -2.8588 17.4462 6.3233 -133.4123 39.0997 161.6102 150.8674 78.5333 -127.9355 0.4161 -13.3337 -18.4523 -66.2567 28.5521 -149.2252 21.1200 -3.8984 -97.6022 -0.0191 0.0665 0.5652 -2.1294 5.8658 40.1616 -133.2143 -0.3891 88.3245 16.5566 3.2214 102.1763 0.6255 -0.0073 -0.1186 -47.5383 22.7159 97.1642 -3.4809 57.9571 6.6896 -1.9904 1.3308 -0.1355 -0.2616 -3.6247 6.9532 -49.2434 0.8862 82.6975 2.4180 39.2273 7.4400 -1.0043 -6.8543 -0.6141 2.9667 -9.0052 -21.3943 
0.0000 93.1000 0.0000 75.9844 -20.7710 -4.5740 -71.0543 0.1765 87.9480 90.5170 69.4580 -12.1565 -2.2989 17.1352 7.6206 -137.4687 40.0912 166.2125 150.5929 78.3927 -129.5614 0.4009 -13.9498 -19.6907 -68.3011 29.4607 -148.3031 21.3313 -2.9524 -96.5672 -0.0455 -0.0754 0.4467 -2.2931 6.3566 41.1618 -135.2495 -5.0099 94.3291 16.9608 1.9585 99.4363 0.4317 -0.0799 0.1221 -48.9820 25.2049 96.7646 -2.2371 53.7362 8.3333 -1.2042 3.0678 -0.1212 -0.7045 -2.9042 8.0036 -45.8329 -1.8330 83.4347 2.6554 40.6605 10.3910 -2.5361 -11.8926 -0.0234 2.7717 -6.2179 -24.8897 
0.0000 93.1000 0.0000 74.8803 -24.8420 -6.0397 -71.0577 0.2245 87.9368 92.7714 69.1917 -14.2662 -3.1179 16.5706 8.7894 -136.7701 39.1470 163.2051 159.2405 78.0752 -137.1100 0.0581 -14.9647 -20.4901 -69.5867 29.2302 -147.4926 22.3414 -3.0358 -96.6255 0.0253 0.1188 0.0753 -2.5956 6.9529 44.6312 -135.4288 -5.8192 100.9399 16.3295 1.3123 95.6585 0.2929 0.1775 -0.1751 -51.6872 25.1157 96.8103 -1.7924 50.8928 7.3105 -1.5140 4.8018 -0.2749 1.3388 -7.4080 9.6689 -40.9119 -4.0779 84.8228 3.4223 45.9456 10.9580 -5.9183 -14.0978 0.8853 2.8902 -9.2502 -26.0632 
0.0000 93.1000 0.0000 73.0424 -28.2912 -8.5991 -71.0556 0.2695 87.9093 98.7293 69.2431 -18.0516 -3.4299 16.4348 8.0727 -134.8412 37.6766 161.2262 164.2911 77.5339 -142.5116 -0.2715 -15.3598 -21.7415 -71.3957 27.6288 -147.3093 23.6830 -2.9085 -96.1912 -0.0082 0.3488 -0.1422 -2.9250 7.3461 48.0114 -135.0649 -5.2885 106.0312 15.4094 0.4547 91.3599 0.1475 0.4007 -0.4948 -53.6434 24.4652 97.2370 -1.5190 50.5129 5.2294 -3.8848 2.6350 -0.3416 2.1787 -8.9621 10.5453 -36.1743 -5.0169 87.7148 4.8407 51.7158 13.3203 -7.7047 -14.3508 1.4421 2.3937 -14.7854 -31.3543 
0.0000 93.1000 0.0000 73.0924 -30.7554 -9.7791 -71.0510 0.2431 87.8899 101.7931 69.1198 -19.1592 -2.9569 16.9722 6.6372 -134.5706 36.9003 161.0631 167.3555 77.8555 -143.5045 -0.2317 -16.1180 -21.9945 -72.0321 27.6522 -147.1520 24.3622 -3.1066 -95.9462 0.1587 0.1820 -0.3098 -2.8388 7.5103 47.5654 -134.1585 -7.6971 108.2971 15.0702 -0.7807 86.7987 0.0602 0.2435 -0.2538 -54.9026 24.1190 98.7981 -2.9375 51.2028 4.7550 -7.1708 -2.1261 -0.1407 4.6122 -12.1640 9.9889 -33.1609 -5.6151 88.8980 4.7469 55.0175 15.0266 -7.4259 -13.8806 1.2374 2.7129 -14.4347 -33.5977 
0.0000 93.1000 0.0000 73.1866 -32.7556 -9.9505 -71.0394 0.2476 87.8717 101.4922 68.8860 -17.9742 -2.2588 16.8718 6.3023 -133.5640 36.5167 160.4350 167.4918 78.1258 -143.5956 -0.3698 -16.8808 -22.7697 -71.9430 27.7630 -148.1021 26.1324 -2.9871 -96.2529 0.3484 0.1980 -0.2644 -2.6777 8.1040 46.6932 -134.1217 -8.7798 108.2627 13.9494 -2.7026 81.6450 -0.3048 0.3208 -0.1732 -55.9660 23.5011 101.9290 -3.0708 51.9998 4.6417 -8.8192 -4.9640 -0.3146 7.6946 -18.2333 7.9180 -31.1457 -7.7727 90.0431 5.6110 56.7460 13.0288 -6.9095 -13.0280 1.2646 1.8362 -12.9132 -27.1400 
0.0000 93.1000 0.0000 73.0022 -33.7158 -10.9575 -71.0411 0.2366 87.8823 101.6007 69.3676 -18.8950 -2.0738 17.3820 6.6396 -131.6003 36.0538 158.2815 171.2182 78.4618 -148.3509 -0.3853 -17.8472 -23.7481 -70.9930 26.6851 -148.1500 25.5452 -3.0602 -94.9337 0.6207 0.1308 -0.1190 -2.7337 7.4942 46.4176 -134.9296 -8.8773 108.4427 12.0515 -3.0594 78.1307 -0.2577 0.2630 -0.2333 -56.9670 23.8226 104.8822 -2.4466 52.4492 3.5772 -7.5225 -7.8091 -0.8449 8.5072 -19.2694 8.8423 -30.2991 -9.1337 89.9709 6.6039 57.0229 14.7981 -6.1510 -12.0252 1.2151 1.6174 -13.2829 -25.2957 
0.0000 93.1000 0.0000 73.0272 -33.5669 -10.9718 -71.0402 0.1741 87.8867 102.3820 69.4612 -19.5204 -1.8051 17.8931 6.7858 -129.5378 35.9145 156.8785 173.9790 79.2370 -148.5664 -0.1213 -18.0665 -24.0477 -68.9127 26.5980 -148.9094 26.3929 -3.3337 -94.9714 -0.0857 -0.1666 0.2616 -2.7705 7.4907 46.3528 -135.0553 -8.8706 108.0850 10.1240 -2.9718 75.0204 -0.2131 -0.0997 -0.0609 -56.6923 23.9204 107.0810 -3.8339 53.4434 1.8005 -7.2675 -10.9855 -0.9098 8.9498 -19.5302 11.9214 -29.8305 -10.9094 89.9611 6.8037 56.9910 15.8061 -6.0895 -10.1538 1.0578 2.0202 -13.7757 -24.0916 
0.0000 93.1000 0.0000 73.1860 -33.6431 -10.1523 -71.0440 0.1828 87.8878 100.7411 69.5479 -17.5214 -1.1669 18.1557 6.1820 -128.6604 35.7850 156.9458 171.6407 79.2864 -147.0480 -0.2385 -18.0899 -23.8668 -68.1448 26.8176 -149.0047 26.9014 -3.3613 -94.9947 -0.2363 -0.1366 0.1684 -2.8004 7.5141 46.6334 -136.2003 -7.9040 107.2304 9.4296 -2.9338 74.3782 -0.2599 -0.0734 -0.0756 -56.9501 24.1739 108.8140 -3.9051 53.5052 -0.1533 -6.5862 -12.7714 -1.1584 8.7464 -18.8757 13.0259 -30.0222 -12.1183 89.0261 6.4023 56.1487 18.0293 -4.7248 -10.0043 0.8502 2.1851 -13.0674 -22.9004 
0.0000 93.1000 0.0000 72.9727 -32.7796 -10.2576 -71.0468 0.2528 87.8890 98.7245 69.7918 -16.5366 -1.0716 17.7919 6.2950 -128.5611 35.7465 157.0555 170.8803 78.9954 -148.0865 -0.5214 -18.0113 -24.0246 -67.2041 26.7679 -150.4115 26.3762 -3.1063 -95.1515 -0.0402 0.2465 -0.1237 -2.8026 7.4445 46.5658 -137.2619 -7.4469 105.9501 9.8618 -2.8647 74.4246 -0.4200 0.3260 -0.1081 -56.9493 24.0313 109.8795 -3.8679 54.2517 -0.5247 -5.1222 -13.0347 -1.7030 8.4468 -18.9878 13.4167 -30.1252 -13.8544 88.0969 5.9141 54.6739 19.0599 -3.8281 -9.0263 0.8216 2.0346 -12.8585 -20.5185 
0.0000 93.1000 0.0000 73.2306 -32.1903 -10.0560 -71.0392 0.2488 87.8878 99.6402 69.7587 -17.0550 -1.1228 17.8440 7.0487 -127.5307 35.8803 156.4986 172.0576 78.8845 -147.8154 -0.3929 -17.9149 -23.8517 -66.4423 26.6201 -150.2142 26.1830 -3.0512 -95.0112 -0.1274 0.2274 -0.2456 -2.8190 7.1033 47.0285 -138.1014 -6.6690 105.7891 8.7887 -2.6755 74.1074 -0.3540 0.2987 0.0219 -55.8071 24.0943 110.7188 -5.0241 55.2943 -2.1280 -4.8806 -13.9036 -1.7116 8.0674 -19.3270 14.1999 -30.0711 -14.8041 87.7271 4.7274 53.9737 17.7175 -4.1277 -7.1885 0.7168 2.0535 -14.1292 -18.7990 
0.0000 93.1000 0.0000 73.1748 -31.4781 -10.2369 -71.0442 0.2289 87.8902 99.6605 69.5594 -18.0145 -1.4561 17.6138 7.1498 -126.7850 35.9886 154.4675 171.5370 79.6966 -147.7815 -0.2822 -17.8316 -23.1628 -66.2205 26.0449 -151.1879 26.1497 -2.9699 -94.0435 -0.0562 0.1335 -0.1115 -2.7924 7.1803 47.2752 -138.4888 -4.9935 104.8134 8.0452 -2.6403 73.9081 -0.1269 0.1327 -0.0777 -55.8141 24.0761 111.5011 -5.2584 55.0549 -1.9454 -4.5107 -15.1815 -1.7554 7.9987 -18.7194 14.0582 -29.9842 -15.8521 86.6885 4.6820 52.9610 19.1075 -3.6307 -6.1055 0.5169 2.1874 -14.8899 -20.7831 
0.0000 93.1000 0.0000 73.2853 -30.6842 -8.9138 -71.0501 0.2908 87.8975 98.6304 70.0915 -16.9678 -1.0961 17.6918 7.0360 -126.8872 36.3286 154.9417 171.6287 80.2382 -146.8574 -0.5708 -17.7801 -22.9520 -66.1760 25.5004 -152.2805 26.1838 -3.2582 -93.9221 -0.0243 0.4543 -0.3054 -2.8387 7.2183 47.4050 -140.4053 -3.9057 103.6154 7.8465 -2.9300 74.1413 -0.2687 0.4523 -0.3277 -54.8999 24.0955 110.9929 -5.5341 55.1896 -2.0691 -3.0926 -15.7798 -2.2721 8.1856 -18.1463 13.4681 -31.0634 -17.0065 86.1851 4.8382 51.9925 20.1628 -2.8210 -5.1834 0.3939 1.8684 -15.0676 -21.2463 
